<?xml version="1.0" standalone="no"?>
<!DOCTYPE svg PUBLIC "-//W3C//DTD SVG 20010904//EN"
 "http://www.w3.org/TR/2001/REC-SVG-20010904/DTD/svg10.dtd">
<svg version="1.0" xmlns="http://www.w3.org/2000/svg"
 width="820.000000pt" height="820.000000pt" viewBox="0 0 820.000000 820.000000"
 preserveAspectRatio="xMidYMid meet">
<metadata>
Created by potrace 1.11, written by Peter Selinger 2001-2013
</metadata>
<g transform="translate(0.000000,820.000000) scale(0.100000,-0.100000)"
fill="#000000" stroke="none">
<path d="M4037 7473 c-10 -3 -16 -10 -14 -16 3 -9 58 -12 188 -14 183 -1 236
-4 429 -26 44 -5 48 -4 20 3 -64 16 -272 39 -415 45 -77 3 -151 8 -165 9 -14
2 -33 2 -43 -1z"/>
<path d="M3795 7463 c-114 -7 -209 -25 -221 -41 -10 -13 -16 -14 -36 -5 -18 8
-43 7 -99 -3 -121 -22 -193 -40 -216 -52 -12 -7 -26 -11 -30 -10 -12 3 -115
-23 -138 -35 -11 -6 -23 -10 -28 -9 -9 3 -228 -80 -298 -112 -27 -13 -45 -26
-42 -30 4 -4 0 -4 -9 -1 -8 3 -23 -1 -31 -10 -9 -9 -19 -16 -22 -15 -21 1 -25
-1 -19 -12 4 -6 3 -8 -4 -5 -14 9 -43 -3 -36 -14 3 -5 -3 -6 -12 -2 -13 5 -15
3 -9 -7 5 -8 4 -11 -3 -6 -13 8 -102 -35 -121 -58 -8 -9 -20 -16 -27 -16 -14
0 -197 -113 -221 -136 -7 -6 -9 -15 -5 -19 4 -5 2 -5 -4 -2 -7 4 -38 -13 -70
-38 -102 -77 -117 -92 -104 -100 9 -5 11 -4 6 3 -10 17 26 15 49 -2 17 -12 25
-8 79 34 78 60 298 205 396 259 149 82 341 171 370 171 9 0 27 9 40 20 13 11
35 23 49 26 14 3 64 19 111 35 47 15 123 38 170 50 47 12 87 25 90 28 3 3 12
7 20 7 8 1 51 9 95 17 44 9 123 21 175 27 52 6 129 18 171 26 41 8 101 15 132
16 36 1 56 6 54 12 -4 11 -107 16 -202 9z m-698 -159 c-3 -3 -12 -4 -19 -1 -8
3 -5 6 6 6 11 1 17 -2 13 -5z m-287 -98 c0 -3 -4 -8 -10 -11 -5 -3 -10 -1 -10
4 0 6 5 11 10 11 6 0 10 -2 10 -4z"/>
<path d="M4701 7406 c2 -2 27 -6 54 -9 34 -4 42 -3 25 3 -25 8 -87 13 -79 6z"/>
<path d="M4818 7383 c7 -3 16 -2 19 1 4 3 -2 6 -13 5 -11 0 -14 -3 -6 -6z"/>
<path d="M4858 7373 c7 -3 16 -2 19 1 4 3 -2 6 -13 5 -11 0 -14 -3 -6 -6z"/>
<path d="M4898 7363 c7 -3 16 -2 19 1 4 3 -2 6 -13 5 -11 0 -14 -3 -6 -6z"/>
<path d="M3796 6945 c-245 -35 -506 -127 -706 -249 -101 -62 -140 -93 -137
-109 1 -5 -11 -10 -26 -11 -19 -1 -41 -15 -65 -40 -20 -21 -72 -72 -114 -114
-270 -267 -431 -692 -642 -1692 -17 -78 -70 -388 -87 -500 -5 -36 -19 -119
-30 -185 -12 -66 -25 -151 -29 -190 -4 -38 -20 -162 -34 -275 -60 -478 -68
-553 -111 -1050 -21 -240 -42 -529 -51 -685 l-6 -131 39 -34 c41 -36 82 -70
193 -163 65 -54 268 -197 279 -197 15 0 32 148 30 250 -1 60 0 112 3 115 3 3
8 -26 12 -65 4 -40 11 -68 17 -65 5 4 9 -14 9 -40 0 -27 -5 -48 -12 -50 -15
-6 -20 -35 -22 -115 l-1 -55 65 -39 c270 -163 650 -313 975 -385 204 -45 516
-81 705 -81 246 0 568 40 815 100 163 40 410 121 482 158 10 6 42 20 71 33 28
12 52 28 52 35 0 19 19 27 34 15 10 -8 19 -6 36 9 13 11 29 20 36 20 35 0 342
188 489 299 68 51 302 252 325 278 22 25 15 138 -11 180 -18 28 -18 33 -5 33
15 0 16 18 11 158 -3 86 -12 234 -19 327 -8 94 -17 211 -21 260 -11 173 -69
721 -110 1035 -19 148 -23 163 -25 90 l-2 -55 -13 55 c-8 30 -14 56 -15 58 0
1 7 2 15 2 18 0 18 2 0 120 -8 52 -22 142 -30 200 -34 234 -133 691 -211 980
-86 315 -222 690 -312 860 -54 104 -168 268 -222 320 -3 3 -18 21 -34 40 -47
57 -202 184 -323 266 -188 126 -437 224 -680 269 -122 23 -455 29 -587 10z
m-746 -365 c12 -8 11 -10 -7 -10 -13 0 -23 5 -23 10 0 13 11 13 30 0z m65 0
c3 -5 -1 -10 -10 -10 -9 0 -13 5 -10 10 3 6 8 10 10 10 2 0 7 -4 10 -10z m78
-27 c-7 -2 -21 -2 -30 0 -10 3 -4 5 12 5 17 0 24 -2 18 -5z m162 -23 c3 -5 1
-10 -4 -10 -6 0 -11 5 -11 10 0 6 2 10 4 10 3 0 8 -4 11 -10z m-317 -22 c16
-16 15 -28 -3 -28 -8 0 -15 2 -15 4 0 2 -3 11 -6 20 -7 19 7 21 24 4z m1287
-83 c347 -61 629 -255 797 -550 255 -447 328 -1115 203 -1845 -41 -235 -144
-648 -199 -795 -6 -16 -6 -17 3 -5 9 12 11 9 11 -16 0 -47 -11 -94 -23 -94 -6
0 -7 18 -4 48 l6 47 -24 -59 c-29 -69 -28 -66 -13 -66 14 0 48 -30 48 -42 0
-5 -14 -1 -32 8 -27 14 -33 14 -37 3 -12 -38 -144 -284 -181 -340 -61 -89
-195 -219 -279 -269 -157 -93 -310 -124 -581 -117 -144 3 -204 9 -270 26 -112
28 -252 98 -323 161 -32 29 -64 50 -74 48 -12 -2 -18 3 -18 17 0 11 -25 54
-56 95 -160 214 -277 500 -388 952 -90 371 -120 554 -141 890 -13 193 -3 439
26 638 30 208 114 490 190 644 119 236 334 441 566 539 95 39 265 83 378 97
99 12 302 4 415 -15z m1565 -1975 c0 -5 -4 -10 -10 -10 -5 0 -10 5 -10 10 0 6
5 10 10 10 6 0 10 -4 10 -10z m130 -56 c0 -8 -4 -12 -10 -9 -5 3 -10 10 -10
16 0 5 5 9 10 9 6 0 10 -7 10 -16z m-50 -23 c7 -14 7 -22 -1 -27 -12 -7 -29
12 -29 34 0 19 18 14 30 -7z m58 -91 c4 -3 13 -15 19 -27 19 -34 -3 -38 -32
-7 -28 30 -31 50 -12 91 l12 28 3 -40 c2 -22 7 -42 10 -45z m-183 -90 c3 -6
-1 -13 -10 -16 -19 -8 -30 0 -20 15 8 14 22 14 30 1z m303 -47 c-16 -15 -18
-15 -28 11 -14 39 -2 53 23 27 20 -20 20 -22 5 -38z m-238 28 c0 -6 -4 -13
-10 -16 -5 -3 -10 1 -10 9 0 9 5 16 10 16 6 0 10 -4 10 -9z m-25 -50 c3 -5 1
-12 -5 -16 -5 -3 -10 1 -10 9 0 18 6 21 15 7z m35 -106 c0 -17 -2 -17 -10 -5
-5 8 -10 24 -10 35 0 17 2 17 10 5 5 -8 10 -24 10 -35z m-460 21 c0 -3 -4 -8
-10 -11 -5 -3 -10 -1 -10 4 0 6 5 11 10 11 6 0 10 -2 10 -4z m513 -124 c8 -23
11 -44 7 -47 -10 -6 -50 87 -43 98 8 13 20 -4 36 -51z m-175 -64 c7 -7 12 -16
12 -20 0 -15 -15 -8 -28 12 -13 22 -3 27 16 8z m371 -25 c0 -31 -2 -34 -9 -18
-12 28 -12 55 0 55 6 0 10 -17 9 -37z m-401 -47 c3 -20 0 -27 -10 -24 -7 3
-14 17 -16 32 -3 20 0 27 10 24 7 -3 14 -17 16 -32z m130 -67 c-4 -43 -22 -44
-26 -2 -3 25 -9 34 -28 39 -16 4 -24 13 -24 28 0 35 8 36 46 1 29 -27 35 -39
32 -66z m-378 84 c-1 -18 -18 -35 -24 -24 -4 6 -4 16 -1 21 7 12 25 13 25 3z
m130 -23 c0 -5 -4 -10 -10 -10 -5 0 -10 5 -10 10 0 6 5 10 10 10 6 0 10 -4 10
-10z m-266 -9 c3 -5 -1 -14 -8 -20 -16 -13 -32 2 -21 19 8 12 22 13 29 1z
m793 -13 c-3 -8 -6 -5 -6 6 -1 11 2 17 5 13 3 -3 4 -12 1 -19z m-683 -14 c9
-8 14 -20 10 -25 -7 -12 -24 -1 -24 16 0 9 -6 12 -15 9 -8 -4 -15 -1 -15 5 0
16 26 13 44 -5z m337 -14 c30 -16 24 -40 -10 -40 -33 0 -46 13 -37 35 6 18 20
19 47 5z m-371 -15 c0 -8 -4 -15 -10 -15 -5 0 -10 7 -10 15 0 8 5 15 10 15 6
0 10 -7 10 -15z m175 -15 c19 -36 19 -51 1 -44 -13 5 -36 46 -36 64 0 20 20 9
35 -20z m85 10 c0 -5 -4 -10 -10 -10 -5 0 -10 5 -10 10 0 6 5 10 10 10 6 0 10
-4 10 -10z m488 -135 c0 -5 -6 4 -13 20 -8 17 -14 53 -14 80 l1 50 13 -70 c7
-38 13 -74 13 -80z m-248 105 c0 -5 -4 -10 -10 -10 -5 0 -10 5 -10 10 0 6 5
10 10 10 6 0 10 -4 10 -10z m-592 -19 c3 -8 -1 -12 -9 -9 -7 2 -15 10 -17 17
-3 8 1 12 9 9 7 -2 15 -10 17 -17z m528 -107 c1 -43 -3 -63 -10 -61 -6 2 -10
22 -9 43 3 52 -6 106 -17 99 -12 -8 -23 13 -14 27 5 8 14 3 28 -16 16 -21 21
-43 22 -92z m-606 85 c-7 -11 -14 -18 -17 -15 -3 3 0 12 7 21 18 21 23 19 10
-6z m408 -11 c-3 -8 -19 -12 -44 -10 -62 5 -66 22 -5 22 37 0 51 -4 49 -12z
m22 -49 c0 -5 -4 -9 -10 -9 -5 0 -10 7 -10 16 0 8 5 12 10 9 6 -3 10 -10 10
-16z m498 -118 c4 -28 -13 -20 -21 9 -3 14 -1 20 6 17 7 -2 14 -14 15 -26z
m-334 -43 c4 -24 9 -53 13 -65 3 -14 1 -23 -6 -23 -6 0 -11 10 -11 23 -1 12
-7 40 -15 61 -14 39 -12 61 4 51 5 -2 11 -24 15 -47z m-664 -10 c0 -16 -3 -19
-11 -11 -6 6 -8 16 -5 22 11 17 16 13 16 -11z m667 -196 c14 -83 15 -102 5
-102 -12 0 -32 85 -32 137 0 62 12 46 27 -35z m-547 34 c0 -35 -15 -40 -29
-10 -15 33 -14 34 9 34 15 0 20 -7 20 -24z m40 -162 c0 -37 -4 -63 -9 -60 -5
4 -9 35 -10 71 0 40 4 63 9 60 6 -4 10 -35 10 -71z m37 30 c-9 -9 -28 6 -21
18 4 6 10 6 17 -1 6 -6 8 -13 4 -17z m-217 -129 c20 -24 6 -28 -15 -5 -10 11
-13 20 -8 20 6 0 16 -7 23 -15z m667 -17 c-3 -8 -6 -5 -6 6 -1 11 2 17 5 13 3
-3 4 -12 1 -19z m-601 -34 c-4 -16 0 -30 11 -42 10 -10 24 -26 32 -35 12 -15
12 -17 -2 -11 -9 3 -30 28 -48 56 -26 40 -29 52 -19 58 21 13 32 1 26 -26z
m984 -19 c10 -12 10 -18 0 -30 -19 -23 -30 -18 -30 15 0 33 11 38 30 15z
m-1217 -15 c3 -11 1 -18 -4 -14 -5 3 -9 12 -9 20 0 20 7 17 13 -6z m928 -12
c23 -29 23 -37 -1 -68 -21 -27 -26 -21 -10 11 8 15 7 23 -5 35 -15 15 -21 44
-9 44 3 0 14 -10 25 -22z m-902 -108 c-2 -14 1 -36 5 -49 11 -33 -8 -48 -27
-21 -12 17 -13 29 -5 50 6 18 6 41 0 64 -6 19 -7 37 -4 40 9 10 33 -56 31 -84z
m435 59 c3 -17 3 -43 -1 -57 l-7 -27 -7 25 c-10 36 -10 90 0 90 5 0 11 -14 15
-31z m379 -6 c5 -40 -4 -60 -22 -49 -12 8 -15 68 -4 79 14 14 21 6 26 -30z
m77 -69 c0 -21 -18 -17 -25 6 -3 11 -11 20 -16 20 -5 0 -9 5 -9 10 0 6 11 3
25 -6 14 -9 25 -23 25 -30z m-550 -6 c0 -14 -19 1 -31 25 -12 22 -12 22 10 3
11 -11 21 -23 21 -28z m460 -65 c0 -56 -3 -74 -11 -66 -10 10 -3 143 7 143 2
0 4 -35 4 -77z m-340 -54 c23 -27 39 -53 36 -57 -7 -7 -117 107 -137 142 -19
32 53 -28 101 -85z m-130 59 c0 -16 -3 -19 -11 -11 -6 6 -8 16 -5 22 11 17 16
13 16 -11z m-118 -3 c0 -5 -5 -11 -11 -13 -6 -2 -11 4 -11 13 0 9 5 15 11 13
6 -2 11 -8 11 -13z m18 -45 c0 -5 -2 -10 -4 -10 -3 0 -8 5 -11 10 -3 6 -1 10
4 10 6 0 11 -4 11 -10z m-215 -9 c7 -12 -24 -91 -35 -91 -17 0 -21 20 -6 26
10 4 16 19 16 40 0 32 12 45 25 25z m49 -32 c-3 -5 -10 -7 -15 -3 -5 3 -7 10
-3 15 3 5 10 7 15 3 5 -3 7 -10 3 -15z m196 -4 c0 -8 -2 -15 -4 -15 -2 0 -6 7
-10 15 -3 8 -1 15 4 15 6 0 10 -7 10 -15z m110 -28 c0 -20 -25 1 -28 24 -2 23
-2 23 13 5 8 -11 15 -24 15 -29z m507 1 c-3 -8 -6 -5 -6 6 -1 11 2 17 5 13 3
-3 4 -12 1 -19z m-304 -69 c26 -34 44 -65 41 -71 -3 -5 -15 5 -26 24 -11 18
-36 50 -56 71 -22 22 -30 37 -22 37 8 -1 36 -28 63 -61z m367 25 c0 -8 -4 -12
-10 -9 -5 3 -10 10 -10 16 0 5 5 9 10 9 6 0 10 -7 10 -16z m-146 -76 c-3 -4
-10 -6 -15 -3 -11 7 -12 49 -2 59 9 9 24 -44 17 -56z m-294 30 c0 -18 -2 -20
-9 -8 -6 8 -7 18 -5 22 9 14 14 9 14 -14z m550 -48 c0 -5 -4 -10 -9 -10 -6 0
-13 5 -16 10 -3 6 1 10 9 10 9 0 16 -4 16 -10z m130 -37 c0 -15 -12 -17 -25
-4 -6 5 -21 11 -34 13 -14 1 -26 8 -28 14 -2 7 10 7 42 0 25 -6 45 -16 45 -23z
m-1401 0 c0 -25 -1 -26 -9 -8 -12 27 -12 35 0 35 6 0 10 -12 9 -27z m108 -65
c-2 -18 -4 -6 -4 27 0 33 2 48 4 33 2 -15 2 -42 0 -60z m1013 44 c0 -7 -4 -10
-10 -7 -5 3 -10 16 -10 28 0 18 2 19 10 7 5 -8 10 -21 10 -28z m-220 8 c0 -5
-4 -10 -10 -10 -5 0 -10 5 -10 10 0 6 5 10 10 10 6 0 10 -4 10 -10z m-885
-109 c-9 -24 -25 7 -24 49 l0 35 15 -34 c8 -19 12 -42 9 -50z m585 65 c0 -9
-30 -14 -35 -6 -4 6 3 10 14 10 12 0 21 -2 21 -4z m-120 -16 c0 -5 -5 -10 -11
-10 -5 0 -7 5 -4 10 3 6 8 10 11 10 2 0 4 -4 4 -10z m-1327 -92 c6 -4 13 -20
14 -35 2 -23 -4 -18 -38 34 -24 36 -38 67 -33 74 4 7 14 -2 26 -27 10 -21 24
-41 31 -46z m1851 56 c3 -9 6 -23 6 -31 0 -13 -3 -13 -15 -3 -16 13 -21 50 -6
50 5 0 12 -7 15 -16z m515 -3 c8 -5 11 -16 7 -27 -6 -16 -7 -16 -21 2 -24 31
-17 44 14 25z m-389 -93 c0 -51 -3 -68 -10 -58 -13 20 -13 130 0 130 6 0 10
-31 10 -72z m-1105 34 c0 -31 -19 -28 -23 4 -3 18 0 25 10 22 7 -3 13 -14 13
-26z m305 0 c0 -5 15 -16 33 -25 34 -17 160 -57 178 -57 23 0 79 -33 79 -46 0
-18 -15 -18 -34 1 -8 8 -22 15 -31 15 -9 0 -28 6 -43 14 -15 8 -54 21 -86 30
-69 18 -166 58 -166 69 0 4 16 7 35 7 19 0 35 -4 35 -8z m-2590 -32 c0 -5 -2
-10 -4 -10 -3 0 -8 5 -11 10 -3 6 -1 10 4 10 6 0 11 -4 11 -10z m1468 -56 l-3
-29 -13 23 c-8 13 -11 31 -7 39 9 26 27 0 23 -33z m-770 -30 l-4 -29 -12 28
c-13 31 -7 56 10 39 5 -5 8 -22 6 -38z m-518 6 c0 -5 -4 -10 -10 -10 -5 0 -10
5 -10 10 0 6 5 10 10 10 6 0 10 -4 10 -10z m1200 0 c0 -5 -4 -10 -10 -10 -5 0
-10 5 -10 10 0 6 5 10 10 10 6 0 10 -4 10 -10z m-1140 -50 c0 -11 -4 -20 -10
-20 -5 0 -10 9 -10 20 0 11 5 20 10 20 6 0 10 -9 10 -20z m1930 0 c0 -5 -4
-10 -9 -10 -6 0 -13 5 -16 10 -3 6 1 10 9 10 9 0 16 -4 16 -10z m1220 -6 c0
-8 -5 -12 -10 -9 -6 4 -8 11 -5 16 9 14 15 11 15 -7z m-560 -4 c0 -6 11 -15
25 -20 19 -7 25 -17 25 -40 0 -17 5 -40 11 -51 5 -11 9 -28 7 -37 -2 -12 -10
-7 -26 20 -13 21 -20 42 -17 48 10 17 -13 39 -35 33 -16 -4 -20 0 -20 20 0 14
-6 28 -12 30 -7 3 -1 6 15 6 15 1 27 -4 27 -9z m-2545 -10 c3 -5 3 -15 -1 -21
-6 -11 -23 6 -24 24 0 10 18 9 25 -3z m89 -47 c9 -13 12 -23 6 -23 -15 0 -60
30 -60 41 0 16 37 4 54 -18z m3036 -14 c0 -5 -4 -9 -10 -9 -5 0 -10 7 -10 16
0 8 5 12 10 9 6 -3 10 -10 10 -16z m-2953 -13 c12 -13 36 -27 55 -31 18 -4 70
-18 115 -32 62 -19 82 -30 87 -46 4 -16 8 -18 19 -9 11 9 22 8 48 -5 18 -9 63
-19 98 -22 93 -8 92 -29 -1 -25 -105 5 -190 25 -196 46 -2 10 -9 19 -16 20 -6
0 -15 2 -21 2 -5 1 -16 5 -22 9 -7 5 -36 15 -65 23 -56 17 -148 63 -148 74 0
9 11 20 20 20 3 0 16 -11 27 -24z m1917 -23 c-17 -42 -34 -64 -34 -45 0 16 34
81 42 82 4 0 0 -17 -8 -37z m-2914 -21 c0 -15 -2 -15 -10 -2 -13 20 -13 33 0
25 6 -3 10 -14 10 -23z m520 18 c0 -5 -5 -10 -11 -10 -5 0 -7 5 -4 10 3 6 8
10 11 10 2 0 4 -4 4 -10z m2850 -15 c0 -8 -4 -15 -10 -15 -5 0 -10 7 -10 15 0
8 5 15 10 15 6 0 10 -7 10 -15z m-100 -24 c0 -17 -18 -21 -24 -6 -3 9 0 15 9
15 8 0 15 -4 15 -9z m-202 -39 c6 -18 -15 -14 -22 4 -4 10 -1 14 6 12 6 -2 14
-10 16 -16z m1039 -14 c-3 -7 -5 -2 -5 12 0 14 2 19 5 13 2 -7 2 -19 0 -25z
m-3762 13 c3 -5 1 -12 -5 -16 -5 -3 -10 1 -10 9 0 18 6 21 15 7z m1720 -23 c4
-18 13 -42 19 -53 16 -25 27 -103 16 -110 -5 -3 -20 9 -34 26 -23 26 -26 40
-26 100 0 72 14 92 25 37z m-930 12 c5 -8 -10 -9 -47 -4 -70 9 -74 14 -10 14
28 0 54 -5 57 -10z m1735 -11 c0 -11 -4 -17 -10 -14 -5 3 -10 13 -10 21 0 8 5
14 10 14 6 0 10 -9 10 -21z m-1690 7 c0 -3 -4 -8 -10 -11 -5 -3 -10 -1 -10 4
0 6 5 11 10 11 6 0 10 -2 10 -4z m579 -40 c36 -5 51 -11 51 -22 0 -11 -4 -12
-19 -4 -11 5 -32 10 -48 10 -52 0 -73 11 -73 36 0 23 0 24 19 5 10 -10 40 -21
70 -25z m1171 13 c0 -11 -4 -17 -10 -14 -5 3 -10 13 -10 21 0 8 5 14 10 14 6
0 10 -9 10 -21z m-2903 -56 c-2 -16 -4 -5 -4 22 0 28 2 40 4 28 2 -13 2 -35 0
-50z m273 52 c10 -12 10 -15 -3 -15 -8 0 -20 7 -27 15 -10 12 -10 15 3 15 8 0
20 -7 27 -15z m1270 -15 c0 -5 -7 -10 -15 -10 -8 0 -15 5 -15 10 0 6 7 10 15
10 8 0 15 -4 15 -10z m1542 -5 c0 -5 -5 -11 -11 -13 -6 -2 -11 4 -11 13 0 9 5
15 11 13 6 -2 11 -8 11 -13z m-1219 -17 c15 -5 27 -16 27 -24 0 -19 -3 -18
-47 12 -46 31 -54 40 -28 30 11 -5 32 -13 48 -18z m2324 -46 c1 -42 -3 -65
-13 -73 -11 -9 -14 -7 -14 14 0 14 5 29 10 32 13 8 8 48 -8 67 -13 16 -5 31
12 25 6 -2 12 -31 13 -65z m-2617 48 c0 -5 -2 -10 -4 -10 -3 0 -8 5 -11 10 -3
6 -1 10 4 10 6 0 11 -4 11 -10z m1744 -27 c-4 -21 -10 -43 -15 -49 -5 -6 -4
-15 3 -22 8 -8 8 -19 -2 -41 -22 -53 -39 -35 -36 37 1 23 9 49 18 59 8 10 18
26 21 36 11 31 18 18 11 -20z m-1893 17 c24 -14 25 -30 0 -30 -21 0 -45 23
-34 33 8 9 11 9 34 -3z m-1131 -77 c0 -56 -3 -74 -11 -66 -10 10 -3 143 7 143
2 0 4 -35 4 -77z m1220 47 c11 -6 17 -17 14 -25 -8 -20 -24 -19 -24 1 0 11 -6
14 -20 9 -14 -5 -20 -2 -20 9 0 18 23 21 50 6z m1403 -17 c3 -16 1 -32 -4 -37
-5 -6 -9 -2 -9 11 0 12 -3 28 -6 37 -3 9 -2 16 4 16 5 0 12 -12 15 -27z
m-2895 -10 c13 10 15 8 9 -13 -4 -14 -7 -31 -7 -37 0 -7 -4 -13 -10 -13 -5 0
-10 9 -10 19 0 10 -7 22 -16 25 -8 3 -12 11 -9 17 5 8 10 8 18 0 7 -7 15 -7
25 2z m602 -11 c0 -13 -12 -22 -22 -16 -10 6 -1 24 13 24 5 0 9 -4 9 -8z m960
-12 c0 -5 -4 -10 -10 -10 -5 0 -10 5 -10 10 0 6 5 10 10 10 6 0 10 -4 10 -10z
m30 -20 c0 -5 -4 -10 -10 -10 -5 0 -10 5 -10 10 0 6 5 10 10 10 6 0 10 -4 10
-10z m618 -22 c19 -30 21 -48 4 -48 -9 0 -42 54 -42 69 0 21 18 11 38 -21z
m732 11 c0 -5 -4 -9 -10 -9 -5 0 -10 7 -10 16 0 8 5 12 10 9 6 -3 10 -10 10
-16z m520 0 c0 -5 -4 -9 -10 -9 -5 0 -10 7 -10 16 0 8 5 12 10 9 6 -3 10 -10
10 -16z m-3512 -59 c1 -47 0 -49 -19 -40 -16 9 -19 17 -13 48 13 72 32 67 32
-8z m2098 49 c3 -6 1 -15 -6 -19 -7 -4 -10 -17 -7 -29 6 -25 -11 -40 -24 -20
-5 8 -9 29 -9 47 0 25 4 32 19 32 11 0 23 -5 27 -11z m-322 -30 c16 -15 -3
-23 -27 -12 -12 6 -33 16 -47 22 -21 9 -19 10 20 5 25 -3 49 -10 54 -15z m353
-25 c-9 -9 -28 6 -21 18 4 6 10 6 17 -1 6 -6 8 -13 4 -17z m1403 -2 c0 -15 -2
-15 -10 -2 -13 20 -13 33 0 25 6 -3 10 -14 10 -23z m-3610 8 c0 -5 -4 -10 -10
-10 -5 0 -10 5 -10 10 0 6 5 10 10 10 6 0 10 -4 10 -10z m1090 -17 c0 -25 0
-26 -20 -8 -11 10 -20 22 -20 27 0 4 9 8 20 8 15 0 20 -7 20 -27z m835 0 c21
-10 35 -24 35 -35 0 -22 -8 -23 -29 -3 -9 8 -27 24 -41 35 -31 24 -13 26 35 3z
m1435 2 c18 -21 6 -45 -20 -38 -13 4 -19 11 -16 20 3 8 6 19 6 24 0 14 16 11
30 -6z m-3200 -50 c0 -8 -4 -15 -10 -15 -5 0 -10 7 -10 15 0 8 5 15 10 15 6 0
10 -7 10 -15z m100 -5 c0 -11 -4 -20 -9 -20 -11 0 -22 26 -14 34 12 12 23 5
23 -14z m1760 0 c0 -11 -4 -20 -10 -20 -5 0 -10 2 -10 4 0 2 -3 11 -6 20 -4
11 -1 16 10 16 9 0 16 -8 16 -20z m240 10 c0 -5 -4 -10 -10 -10 -5 0 -10 5
-10 10 0 6 5 10 10 10 6 0 10 -4 10 -10z m-2200 -10 c0 -5 -7 -10 -16 -10 -8
0 -12 5 -9 10 3 6 10 10 16 10 5 0 9 -4 9 -10z m154 -22 c3 -13 6 -32 6 -42 0
-29 -17 -7 -25 32 -7 36 9 45 19 10z m2433 -14 c-9 -9 -28 6 -21 18 4 6 10 6
17 -1 6 -6 8 -13 4 -17z m-1807 1 c7 -8 21 -15 31 -15 23 0 45 -38 31 -52 -7
-7 -16 -1 -28 16 -9 15 -23 25 -30 22 -11 -4 -44 23 -44 37 0 13 27 7 40 -8z
m1255 4 c10 -15 -1 -23 -20 -15 -9 3 -13 10 -10 16 8 13 22 13 30 -1z m45 -25
c0 -8 -4 -12 -10 -9 -5 3 -10 10 -10 16 0 5 5 9 10 9 6 0 10 -7 10 -16z m1220
-30 c0 -16 -26 -19 -35 -4 -4 6 -4 18 -1 27 5 12 9 13 21 3 8 -7 15 -19 15
-26z m330 15 c0 -5 -4 -9 -10 -9 -5 0 -10 7 -10 16 0 8 5 12 10 9 6 -3 10 -10
10 -16z m-1493 -21 c-3 -8 -6 -5 -6 6 -1 11 2 17 5 13 3 -3 4 -12 1 -19z m909
-5 c-10 -10 -19 5 -10 18 6 11 8 11 12 0 2 -7 1 -15 -2 -18z m-846 7 c0 -6 11
-16 25 -22 14 -6 25 -15 25 -20 0 -12 -44 -10 -58 4 -15 15 -16 48 -2 48 6 0
10 -5 10 -10z m370 -15 c0 -8 -4 -15 -10 -15 -5 0 -10 7 -10 15 0 8 5 15 10
15 6 0 10 -7 10 -15z m-1160 -16 c0 -11 -27 -12 -34 0 -3 4 -3 11 0 14 8 8 34
-3 34 -14z m1460 -4 c0 -8 -4 -15 -9 -15 -13 0 -22 16 -14 24 11 11 23 6 23
-9z m-2229 -22 c-9 -34 -31 -40 -66 -17 -20 13 -23 19 -13 25 7 5 19 9 27 9
11 0 11 -3 1 -15 -10 -13 -9 -15 9 -15 14 0 21 6 21 20 0 11 6 20 14 20 11 0
12 -7 7 -27z m2459 17 c19 1 44 2 55 3 28 3 31 -17 3 -25 -37 -10 -116 -9
-123 2 -3 6 -35 10 -71 10 -39 0 -64 4 -64 11 0 7 26 9 83 4 45 -3 98 -6 117
-5z m130 0 c0 -5 -4 -10 -10 -10 -5 0 -10 5 -10 10 0 6 5 10 10 10 6 0 10 -4
10 -10z m-920 -30 c0 -5 -2 -10 -4 -10 -3 0 -8 5 -11 10 -3 6 -1 10 4 10 6 0
11 -4 11 -10z m-705 -40 c0 -8 -6 -15 -12 -17 -8 -3 -13 4 -13 16 0 12 -4 21
-10 21 -5 0 -10 5 -10 11 0 7 8 6 23 -3 12 -9 22 -21 22 -28z m-201 -35 c7
-48 -8 -19 -18 35 -5 23 -4 30 2 20 5 -8 12 -33 16 -55z m980 50 c11 -8 17
-17 14 -20 -8 -9 -58 17 -52 26 7 12 16 11 38 -6z m-2014 -15 c0 -5 -7 -10
-15 -10 -8 0 -15 5 -15 10 0 6 7 10 15 10 8 0 15 -4 15 -10z m2070 -11 c0 -11
-4 -17 -10 -14 -5 3 -10 13 -10 21 0 8 5 14 10 14 6 0 10 -9 10 -21z m1072 11
c41 -12 53 -24 42 -42 -5 -7 -11 -5 -21 8 -14 18 -15 18 -28 1 -11 -15 -15
-16 -22 -4 -4 7 -16 17 -26 20 -19 7 -14 27 6 27 7 0 29 -5 49 -10z m-1809
-36 c-4 -10 -9 -12 -15 -6 -12 12 -1 35 12 27 5 -3 6 -13 3 -21z m787 12 c0
-11 -19 -15 -25 -6 -3 5 1 10 9 10 9 0 16 -2 16 -4z m41 -29 c-13 -13 -26 -3
-16 12 3 6 11 8 17 5 6 -4 6 -10 -1 -17z m484 13 c3 -5 -1 -10 -9 -10 -9 0
-16 5 -16 10 0 6 4 10 9 10 6 0 13 -4 16 -10z m655 -21 c0 -5 -4 -9 -10 -9 -5
0 -10 7 -10 16 0 8 5 12 10 9 6 -3 10 -10 10 -16z m-2700 1 c0 -5 -4 -10 -10
-10 -5 0 -10 5 -10 10 0 6 5 10 10 10 6 0 10 -4 10 -10z m2088 -2 c15 -15 16
-41 0 -36 -13 5 -31 48 -20 48 5 0 13 -5 20 -12z m-1013 -8 c4 -6 -8 -10 -29
-10 -19 0 -38 5 -41 10 -4 6 8 10 29 10 19 0 38 -4 41 -10z m245 -6 c0 -8 -4
-12 -10 -9 -5 3 -10 10 -10 16 0 5 5 9 10 9 6 0 10 -7 10 -16z m298 5 c-2 -6
-8 -10 -13 -10 -5 0 -11 4 -13 10 -2 6 4 11 13 11 9 0 15 -5 13 -11z m-363
-21 c26 -8 34 -13 22 -16 -10 -2 -32 1 -49 7 -17 6 -45 11 -62 11 -17 0 -38 5
-46 11 -18 13 74 4 135 -13z m-1160 2 c3 -5 2 -10 -4 -10 -5 0 -13 5 -16 10
-3 6 -2 10 4 10 5 0 13 -4 16 -10z m1590 -6 c6 -9 25 -16 41 -16 16 0 34 -4
39 -8 6 -4 39 -13 75 -19 36 -7 75 -15 88 -17 13 -3 20 -8 18 -13 -3 -5 4 -11
17 -15 20 -5 20 -7 6 -21 -12 -12 -22 -14 -40 -6 -51 20 -65 25 -87 27 -13 2
-36 11 -50 21 -15 9 -31 16 -36 15 -4 -2 -14 2 -21 8 -7 6 -29 11 -49 12 -27
1 -35 5 -31 15 3 8 5 19 5 24 0 14 12 11 25 -7z m-300 -3 c3 -6 26 -13 51 -17
25 -3 42 -10 37 -14 -9 -8 -109 2 -119 13 -7 7 4 27 16 27 5 0 11 -4 15 -9z
m-1227 -12 c-2 -6 -8 -10 -13 -10 -5 0 -11 4 -13 10 -2 6 4 11 13 11 9 0 15
-5 13 -11z m1172 1 c0 -5 -2 -10 -4 -10 -3 0 -8 5 -11 10 -3 6 -1 10 4 10 6 0
11 -4 11 -10z m290 -5 c0 -5 -21 -10 -48 -11 -49 -1 -65 3 -58 14 7 11 106 8
106 -3z m-1652 -151 c-7 -7 -64 69 -73 96 -4 15 10 1 35 -33 23 -32 40 -60 38
-63z m1712 106 c0 -5 -4 -10 -10 -10 -5 0 -10 5 -10 10 0 6 5 10 10 10 6 0 10
-4 10 -10z m695 -24 c0 -9 7 -21 15 -26 26 -16 -2 -33 -39 -23 -37 10 -45 27
-13 31 18 3 21 8 16 24 -4 15 -2 19 7 16 8 -3 14 -12 14 -22z m-300 -25 c-10
-16 -25 -3 -25 22 0 20 1 20 16 5 9 -9 13 -21 9 -27z m68 20 c-2 -6 3 -11 10
-11 6 0 4 -5 -6 -11 -21 -12 -46 -1 -26 12 11 7 11 9 1 9 -7 0 -10 5 -7 11 9
13 31 5 28 -10z m-1693 -12 c0 -5 -4 -9 -10 -9 -5 0 -10 7 -10 16 0 8 5 12 10
9 6 -3 10 -10 10 -16z m1848 -11 c4 -20 -32 -26 -43 -8 -3 6 -19 10 -36 10
-26 0 -37 9 -24 21 2 3 26 3 52 -1 35 -4 49 -10 51 -22z m-268 12 c0 -5 -9
-10 -20 -10 -11 0 -20 5 -20 10 0 6 9 10 20 10 11 0 20 -4 20 -10z m430 -16
c0 -8 -7 -14 -15 -14 -15 0 -21 21 -9 33 10 9 24 -2 24 -19z m-785 6 c3 -5 -1
-10 -9 -10 -9 0 -16 5 -16 10 0 6 4 10 9 10 6 0 13 -4 16 -10z m-1145 -15 c0
-8 -4 -15 -10 -15 -5 0 -10 7 -10 15 0 8 5 15 10 15 6 0 10 -7 10 -15z m1475
-25 c3 -5 -1 -10 -9 -10 -9 0 -16 5 -16 10 0 6 4 10 9 10 6 0 13 -4 16 -10z
m101 -1 c12 -20 -11 -30 -39 -17 -15 7 -27 16 -27 21 0 11 58 8 66 -4z m-1660
-36 c-10 -10 -19 5 -10 18 6 11 8 11 12 0 2 -7 1 -15 -2 -18z m349 -13 c14
-15 15 -20 4 -20 -15 1 -49 23 -49 34 0 13 28 5 45 -14z m1425 -21 c0 -5 -4
-9 -10 -9 -5 0 -10 7 -10 16 0 8 5 12 10 9 6 -3 10 -10 10 -16z m-990 -105 c0
-8 -4 -12 -10 -9 -5 3 -10 10 -10 16 0 5 5 9 10 9 6 0 10 -7 10 -16z"/>
<path d="M3004 4909 c-18 -5 -48 -28 -69 -50 -36 -40 -37 -44 -33 -100 3 -45
10 -65 29 -85 48 -52 70 -57 252 -57 l168 1 37 29 c46 37 68 94 58 148 -9 48
-69 109 -116 119 -47 9 -290 6 -326 -5z"/>
<path d="M4780 4909 c-113 -45 -133 -190 -36 -264 35 -27 36 -27 210 -29 163
-1 176 0 203 20 97 72 98 194 1 257 -41 27 -45 27 -198 26 -85 0 -166 -5 -180
-10z"/>
<path d="M4726 4529 c-31 -24 -33 -52 -7 -78 57 -57 347 -73 404 -23 23 20 22
57 -3 82 -17 17 -27 19 -58 13 -60 -13 -193 -7 -251 10 -30 10 -55 17 -56 17
-1 0 -14 -9 -29 -21z"/>
<path d="M3262 4522 c-62 -14 -85 -14 -158 -4 -78 12 -88 11 -105 -4 -28 -26
-24 -70 8 -91 39 -26 275 -26 349 0 64 22 85 54 60 92 -19 30 -44 31 -154 7z"/>
<path d="M3915 3075 c-154 -22 -215 -54 -236 -125 -10 -31 -8 -43 10 -77 42
-83 154 -108 442 -100 149 4 184 8 223 25 l46 21 -16 38 c-9 21 -23 45 -31 55
-13 14 -12 17 3 26 16 9 16 12 -1 61 -22 59 -32 64 -170 80 -109 13 -153 12
-270 -4z m232 -155 c9 -24 9 -110 0 -110 -15 0 -31 50 -20 61 6 6 8 24 3 44
-7 32 0 62 8 33 2 -7 6 -20 9 -28z m-427 -50 c0 -5 -4 -10 -10 -10 -5 0 -10 5
-10 10 0 6 5 10 10 10 6 0 10 -4 10 -10z m370 -21 c0 -6 -4 -7 -10 -4 -5 3
-10 11 -10 16 0 6 5 7 10 4 6 -3 10 -11 10 -16z m260 -20 c0 -11 -4 -17 -10
-14 -5 3 -10 15 -10 26 0 11 5 17 10 14 6 -3 10 -15 10 -26z m-340 -14 c0 -8
-4 -15 -10 -15 -5 0 -10 7 -10 15 0 8 5 15 10 15 6 0 10 -7 10 -15z"/>
<path d="M4373 3026 c4 -10 14 -50 22 -89 18 -87 28 -99 49 -59 20 39 20 46 0
88 -18 38 -84 93 -71 60z"/>
<path d="M4848 1163 c6 -2 18 -2 25 0 6 3 1 5 -13 5 -14 0 -19 -2 -12 -5z"/>
<path d="M1970 6710 c0 -7 -7 -10 -15 -6 -8 3 -14 0 -12 -7 3 -18 19 -27 49
-27 39 0 53 28 16 34 -7 1 -19 5 -25 9 -8 5 -13 3 -13 -3z"/>
<path d="M1860 6632 c-12 -15 -18 -21 -14 -13 5 9 3 12 -4 7 -7 -4 -12 -14
-12 -23 0 -9 -3 -13 -7 -10 -9 9 -34 -13 -27 -24 3 -5 0 -8 -8 -7 -7 2 -12 -3
-10 -10 1 -8 -2 -11 -8 -7 -15 9 -144 -121 -134 -136 4 -7 3 -10 -3 -6 -13 8
-36 -17 -25 -28 4 -5 2 -5 -4 -2 -12 7 -71 -61 -66 -76 1 -5 -2 -6 -7 -3 -9 6
-58 -52 -155 -184 -31 -41 -60 -81 -66 -88 -6 -7 -8 -17 -4 -24 5 -7 3 -8 -6
-3 -10 6 -12 4 -7 -9 4 -9 3 -15 -2 -11 -19 11 -199 -303 -286 -500 -202 -457
-304 -1015 -274 -1500 30 -498 138 -916 342 -1320 73 -145 164 -305 173 -305
3 0 -7 19 -21 43 -25 41 -165 323 -165 333 0 3 -24 66 -54 142 -58 144 -140
439 -163 582 -30 192 -35 233 -46 420 -19 304 3 632 58 875 41 180 60 253 71
275 7 14 20 55 29 90 40 153 220 546 338 735 58 94 85 133 204 294 99 133 263
310 423 454 29 26 51 49 49 51 -2 2 -23 6 -46 10 -37 5 -44 3 -63 -22z m-50
-86 c0 -2 -8 -10 -17 -17 -16 -13 -17 -12 -4 4 13 16 21 21 21 13z"/>
<path d="M1981 4774 c0 -11 3 -14 6 -6 3 7 2 16 -1 19 -3 4 -6 -2 -5 -13z"/>
<path d="M7101 2514 c0 -11 3 -14 6 -6 3 7 2 16 -1 19 -3 4 -6 -2 -5 -13z"/>
<path d="M1260 2320 c6 -11 13 -20 16 -20 2 0 0 9 -6 20 -6 11 -13 20 -16 20
-2 0 0 -9 6 -20z"/>
<path d="M6585 1843 c4 -16 2 -23 -7 -23 -8 0 -9 -3 -3 -8 6 -4 11 -13 13 -21
2 -11 0 -12 -10 -3 -11 9 -14 5 -16 -15 -2 -26 -2 -26 18 -8 22 20 26 61 9 85
-8 12 -9 10 -4 -7z"/>
<path d="M6465 1690 c-7 -12 2 -30 16 -30 5 0 9 5 9 11 0 5 -5 7 -12 3 -8 -5
-9 -2 -5 9 7 19 2 23 -8 7z"/>
<path d="M6297 1563 c-4 -3 -1 -13 6 -21 10 -13 8 -14 -13 -9 -14 4 -19 4 -12
1 19 -9 14 -27 -5 -20 -17 6 -17 5 -1 -7 10 -8 14 -18 10 -23 -4 -4 1 -2 11 5
9 8 15 16 12 19 -3 3 5 17 17 31 13 14 15 19 6 12 -16 -12 -22 -9 -19 12 1 9
-4 9 -12 0z"/>
<path d="M6206 1451 c-14 -15 -15 -21 -4 -27 7 -4 10 -3 5 1 -4 5 0 17 10 27
9 10 14 18 11 18 -3 0 -13 -9 -22 -19z"/>
<path d="M6128 1397 c7 -8 10 -16 7 -19 -3 -2 1 -5 9 -5 18 0 10 24 -11 31
-12 5 -13 4 -5 -7z"/>
<path d="M6065 1391 c-7 -12 42 -47 52 -37 3 3 1 6 -7 6 -10 0 -10 3 1 18 11
14 11 15 -1 5 -16 -15 -34 -17 -25 -4 3 5 1 12 -4 15 -5 4 -12 2 -16 -3z"/>
<path d="M6027 1364 c-3 -3 -3 -12 0 -20 4 -11 9 -12 19 -3 7 6 19 7 25 3 8
-4 9 -3 5 5 -5 7 -16 9 -28 5 -14 -4 -18 -2 -14 5 8 12 3 15 -7 5z"/>
<path d="M6011 1303 c-1 -27 11 -30 30 -6 12 15 12 16 -3 10 -9 -3 -19 -1 -22
6 -2 7 -5 2 -5 -10z"/>
<path d="M5958 1303 c12 -2 22 -9 22 -14 0 -6 -10 -8 -22 -4 -21 5 -21 5 -5
-6 13 -7 22 -8 29 -1 15 15 0 32 -25 31 -22 -2 -22 -2 1 -6z"/>
<path d="M5901 1251 c0 -7 -7 -11 -16 -7 -8 3 -14 0 -12 -7 1 -7 -9 -12 -25
-11 -15 0 -24 -4 -22 -8 3 -5 16 -6 30 -4 13 3 24 0 24 -5 0 -5 -11 -10 -25
-10 -14 -1 -31 -2 -37 -3 -7 -1 -12 6 -10 14 2 13 0 13 -10 -1 -7 -8 -21 -20
-30 -25 -16 -9 -16 -10 2 -22 12 -7 20 -8 20 -2 0 5 -6 10 -12 10 -7 0 -5 5 5
11 11 7 23 7 35 0 9 -6 11 -11 5 -11 -7 0 -13 -5 -13 -11 0 -8 5 -8 15 1 8 7
12 16 9 21 -3 5 6 9 19 9 14 0 30 7 37 15 6 8 17 13 22 12 6 -1 13 5 15 13 4
13 3 13 -5 1 -8 -11 -11 -9 -15 10 -2 13 -5 18 -6 10z"/>
<path d="M5723 1163 c4 -3 1 -13 -6 -21 -10 -13 -8 -14 11 -8 18 6 21 4 15
-11 -6 -15 -5 -16 9 -3 14 13 13 17 -5 32 -19 17 -38 26 -24 11z"/>
<path d="M2494 1116 c11 -9 24 -16 30 -16 12 0 7 5 -24 19 -24 11 -24 11 -6
-3z"/>
<path d="M5643 1115 c0 -7 6 -11 14 -8 7 3 13 0 13 -6 0 -6 -11 -11 -25 -11
-14 0 -28 -7 -31 -15 -5 -12 -9 -12 -30 2 -14 9 -24 12 -23 7 4 -21 -2 -35
-11 -29 -6 4 -8 11 -5 16 3 5 -1 6 -9 3 -9 -3 -14 -10 -11 -14 3 -5 -4 -11
-15 -15 -11 -3 -20 -12 -20 -20 0 -18 -28 -27 -50 -15 -10 6 -21 10 -23 10 -9
0 -2 -35 10 -47 15 -17 23 -16 23 2 0 8 5 15 11 15 5 0 7 -5 3 -11 -5 -8 -1
-8 14 0 12 6 24 16 27 21 4 6 10 8 14 6 4 -3 8 1 8 9 0 8 -4 12 -9 9 -4 -3 -8
0 -8 5 0 12 0 12 48 16 19 2 32 -2 32 -9 0 -6 5 -3 11 6 5 10 17 15 27 12 14
-5 14 -4 2 5 -8 5 -11 13 -7 17 3 4 12 2 19 -4 10 -8 19 -4 37 14 13 14 20 24
15 22 -5 -1 -18 3 -30 9 -16 10 -21 9 -21 -2z m-48 -55 c3 -6 -1 -7 -9 -4 -18
7 -21 14 -7 14 6 0 13 -4 16 -10z"/>
<path d="M2590 1066 c0 -2 7 -7 16 -10 8 -3 12 -2 9 4 -6 10 -25 14 -25 6z"/>
<path d="M5458 1023 c7 -3 16 -2 19 1 4 3 -2 6 -13 5 -11 0 -14 -3 -6 -6z"/>
<path d="M2734 1002 c4 -7 21 -19 37 -28 30 -15 30 -15 19 5 -6 12 -15 21 -20
21 -4 0 -16 3 -26 7 -12 4 -15 3 -10 -5z"/>
<path d="M5365 989 c-4 -5 -10 -7 -15 -4 -4 3 -11 -2 -14 -10 -5 -13 -2 -14
15 -5 15 9 24 8 35 -1 21 -18 24 -7 3 13 -11 10 -21 13 -24 7z"/>
<path d="M2855 950 c-3 -5 -1 -10 4 -10 6 0 11 5 11 10 0 6 -2 10 -4 10 -3 0
-8 -4 -11 -10z"/>
<path d="M5308 948 c12 -8 20 -17 16 -21 -4 -4 -13 -2 -21 5 -7 6 -16 8 -20 5
-3 -4 -14 -2 -23 3 -20 11 -83 -6 -75 -20 3 -5 -3 -8 -12 -8 -23 1 -74 -10
-81 -17 -3 -3 16 -3 41 1 26 3 47 3 47 1 0 -2 -25 -12 -55 -22 -30 -9 -55 -21
-55 -26 0 -13 18 -11 22 2 2 6 20 11 41 12 24 1 33 4 24 10 -7 5 -1 6 16 3 17
-4 42 0 65 11 26 13 32 19 20 21 -22 4 -24 22 -3 22 7 0 19 -8 24 -17 7 -12
10 -13 11 -4 0 7 6 11 14 8 7 -3 27 3 45 14 35 21 38 26 16 26 -8 0 -12 -5 -8
-10 3 -5 -4 -6 -18 -2 -49 16 -53 16 -31 3z"/>
<path d="M2892 935 c9 -10 28 -19 43 -21 15 -1 32 -7 38 -13 6 -6 19 -11 29
-11 9 0 33 -8 53 -17 27 -13 38 -14 47 -5 9 9 6 12 -14 12 -15 0 -29 4 -32 9
-5 8 -94 35 -121 36 -5 1 -21 7 -35 14 -24 13 -24 12 -8 -4z"/>
<path d="M5020 864 c-14 -8 -36 -12 -50 -9 -14 2 -19 2 -12 -1 6 -3 10 -10 7
-15 -4 -5 2 -6 12 -4 10 3 8 0 -4 -6 -13 -7 -23 -16 -23 -21 0 -10 4 -10 32 1
45 18 63 24 69 23 3 0 6 6 6 14 0 8 -5 14 -11 15 -6 0 -2 4 9 9 12 5 14 8 5 8
-8 0 -26 -6 -40 -14z m14 -19 c-7 -17 -20 -20 -29 -6 -3 5 3 12 12 14 10 3 19
5 20 6 1 0 0 -6 -3 -14z"/>
<path d="M3115 860 c-3 -6 0 -12 7 -14 7 -1 28 -8 46 -14 17 -5 32 -6 32 -1 0
4 8 6 18 4 9 -3 4 1 -13 8 -45 21 -83 28 -90 17z"/>
<path d="M4912 839 c-13 -5 -29 -6 -35 -2 -7 4 -7 0 1 -9 10 -13 10 -18 1 -24
-7 -4 -9 -3 -6 3 7 11 -13 23 -36 23 -7 0 -6 -5 3 -10 12 -8 10 -10 -10 -8
-14 2 -27 -1 -29 -7 -2 -5 -11 -15 -19 -21 -11 -8 -12 -13 -4 -18 7 -4 12 -3
12 3 0 5 14 8 30 6 37 -5 38 0 3 20 -27 15 -27 16 -3 9 14 -3 31 -11 38 -16 8
-7 16 -7 26 1 7 6 22 9 32 5 16 -5 16 -4 4 5 -13 9 -12 11 5 12 l20 0 -20 8
c-19 8 -18 9 5 12 14 2 21 7 15 10 -5 4 -21 3 -33 -2z"/>
<path d="M3240 830 c0 -16 39 -32 62 -24 11 3 18 2 15 -3 -3 -5 7 -8 21 -7 15
0 33 -6 41 -13 7 -8 20 -12 28 -9 8 4 36 -1 61 -10 31 -10 48 -12 50 -5 2 6
11 11 19 11 9 0 13 3 9 7 -4 4 -31 8 -59 9 -29 1 -65 6 -82 12 -62 21 -120 31
-126 20 -4 -5 -9 -3 -12 6 -7 17 -27 22 -27 6z"/>
<path d="M4740 799 c0 -6 -9 -8 -22 -4 -17 4 -19 4 -9 -3 11 -8 9 -11 -8 -17
-11 -3 -21 -11 -21 -16 0 -13 17 -11 24 4 5 10 7 10 12 0 3 -7 14 -13 25 -13
14 0 19 7 19 30 0 17 -4 30 -10 30 -5 0 -10 -5 -10 -11z"/>
<path d="M4602 782 c-13 -2 -26 -10 -29 -18 -3 -8 -18 -14 -37 -13 -30 1 -30
1 -6 9 22 7 21 8 -12 9 -21 1 -38 -3 -38 -7 0 -4 -16 -6 -35 -4 -19 2 -41 -1
-48 -6 -7 -6 -23 -9 -35 -5 -28 7 -75 -5 -67 -17 3 -6 0 -10 -7 -10 -8 0 -6
-5 5 -11 11 -7 41 -8 79 -4 52 6 59 10 55 26 -4 15 0 19 18 19 32 0 41 -17 13
-23 -19 -4 -18 -5 6 -6 21 -1 27 3 22 14 -5 13 1 15 32 10 20 -4 45 -9 56 -12
10 -3 16 -1 13 4 -9 14 9 36 22 28 9 -5 9 -10 0 -21 -10 -12 -8 -14 12 -10 13
3 27 5 31 5 4 1 5 8 2 16 -4 10 2 18 17 24 21 8 20 9 -11 8 -19 -1 -45 -3 -58
-5z"/>
<path d="M3575 760 c-4 -6 -11 -8 -16 -5 -5 4 -9 1 -9 -4 0 -15 27 -14 33 2 3
9 9 8 23 -4 24 -21 98 -31 113 -16 9 9 14 9 20 -1 4 -7 12 -12 17 -11 5 1 11
1 14 0 18 -6 104 -13 150 -13 68 2 80 3 80 13 0 12 -69 20 -88 10 -12 -8 -13
-10 -3 -11 8 0 12 -3 8 -6 -8 -9 -48 6 -42 16 3 4 -6 10 -20 12 -13 3 -22 1
-19 -3 3 -5 1 -9 -5 -9 -5 0 -12 6 -14 13 -4 9 -8 9 -15 -2 -7 -10 -11 -10
-17 -1 -5 8 -27 10 -76 5 -54 -6 -72 -4 -91 9 -26 19 -34 20 -43 6z"/>
<path d="M4100 730 c21 -7 22 -8 5 -9 -17 -1 -17 -3 -5 -11 20 -13 73 -13 65
0 -3 6 -1 10 4 10 6 0 11 5 11 10 0 6 -24 10 -52 9 -42 -1 -48 -3 -28 -9z"/>
<path d="M4528 723 c7 -3 16 -2 19 1 4 3 -2 6 -13 5 -11 0 -14 -3 -6 -6z"/>
</g>
</svg>
